<svg width="60" height="60" viewBox="0 0 60 60" fill="none" xmlns="http://www.w3.org/2000/svg">
<path d="M18 28.2C17.0058 28.2 16.2 29.0059 16.2 30C16.2 30.9941 17.0058 31.8 18 31.8V28.2ZM30 31.8C30.994 31.8 31.8 30.9941 31.8 30C31.8 29.0059 30.994 28.2 30 28.2V31.8ZM30 28.2C29.0059 28.2 28.2 29.0059 28.2 30C28.2 30.9941 29.0059 31.8 30 31.8V28.2ZM42 31.8C42.994 31.8 43.7999 30.9941 43.7999 30C43.7999 29.0059 42.994 28.2 42 28.2V31.8ZM31.8 30C31.8 29.0059 30.994 28.2 30 28.2C29.0059 28.2 28.2 29.0059 28.2 30H31.8ZM28.2 42C28.2 42.9941 29.0059 43.8 30 43.8C30.994 43.8 31.8 42.9941 31.8 42H28.2ZM28.2 30C28.2 30.9941 29.0059 31.8 30 31.8C30.994 31.8 31.8 30.9941 31.8 30H28.2ZM31.8 18C31.8 17.0059 30.994 16.2 30 16.2C29.0059 16.2 28.2 17.0059 28.2 18H31.8ZM18 31.8H30V28.2H18V31.8ZM30 31.8H42V28.2H30V31.8ZM30 30H28.2V30.0024C28.2 30.0026 28.2 30.0053 28.2 30.0053C28.2 30.005 28.2 30.0055 28.2 30.0053C28.2 30.0053 28.2 30.0079 28.2 30.0082C28.2 30.0079 28.2 30.0084 28.2 30.0082C28.2 30.0084 28.2 30.0103 28.2 30.0106C28.2 30.0108 28.2 30.013 28.2 30.0132C28.2 30.0134 28.2 30.0154 28.2 30.0156C28.2 30.0158 28.2 30.018 28.2 30.0185C28.2 30.0187 28.2 30.0209 28.2 30.0214C28.2 30.0216 28.2 30.0242 28.2 30.0245C28.2 30.024 28.2 30.025 28.2 30.0245C28.2 30.025 28.2 30.0264 28.2 30.0269C28.2 30.0264 28.2 30.0274 28.2 30.0269C28.2 30.0274 28.2 30.029 28.2 30.0293C28.2 30.0288 28.2 30.0298 28.2 30.0293C28.2 30.0298 28.2 30.0314 28.2 30.0319C28.2 30.0314 28.2 30.0324 28.2 30.0319C28.2 30.0324 28.2 30.0343 28.2 30.0348C28.2 30.0343 28.2 30.0353 28.2 30.0348C28.2 30.0353 28.2 30.0372 28.2 30.0377C28.2 30.037 28.2 30.0382 28.2 30.0377C28.2 30.0382 28.2 30.0403 28.2 30.0408C28.2 30.0403 28.2 30.0413 28.2 30.0408C28.2 30.0413 28.2 30.0434 28.2 30.0442C28.2 30.0434 28.2 30.0446 28.2 30.0442C28.2 30.0446 28.2 30.047 28.2 30.0475C28.2 30.047 28.2 30.048 28.2 30.0475C28.2 30.0482 28.2 30.0504 28.2 30.0511C28.2 30.0504 28.2 30.0518 28.2 30.0511C28.2 30.0516 28.2 30.0542 28.2 30.055C28.2 30.0542 28.2 30.0554 28.2 30.055C28.2 30.0557 28.2 30.0581 28.2 30.0588C28.2 30.0581 28.2 30.0595 28.2 30.0588C28.2 30.0595 28.2 30.0624 28.2 30.0631C28.2 30.0624 28.2 30.0638 28.2 30.0631C28.2 30.0638 28.2 30.0667 28.2 30.0674C28.2 30.0667 28.2 30.0682 28.2 30.0674C28.2 30.0682 28.2 30.071 28.2 30.072C28.2 30.0713 28.2 30.0727 28.2 30.072C28.2 30.073 28.2 30.0758 28.2 30.0766C28.2 30.0775 28.2 30.0782 28.2 30.0792C28.2 30.0799 28.2 30.0806 28.2 30.0816C28.2 30.0826 28.2 30.0833 28.2 30.0842C28.2 30.085 28.2 30.0859 28.2 30.0866C28.2 30.0876 28.2 30.0886 28.2 30.0895C28.2 30.0902 28.2 30.0912 28.2 30.0922C28.2 30.0931 28.2 30.0938 28.2 30.0948C28.2 30.0958 28.2 30.0967 28.2 30.0977C28.2 30.0986 28.2 30.0996 28.2 30.1006C28.2 30.1015 28.2 30.1025 28.2 30.1034C28.2 30.1044 28.2 30.1056 28.2 30.1066C28.2 30.1075 28.2 30.1085 28.2 30.1094C28.2 30.1106 28.2 30.1116 28.2 30.1126C28.2 30.1138 28.2 30.1147 28.2 30.1157C28.2 30.1169 28.2 30.1178 28.2 30.119C28.2 30.12 28.2 30.1212 28.2 30.1222C28.2 30.1234 28.2 30.1246 28.2 30.1255C28.2 30.1267 28.2 30.1279 28.2 30.1291C28.2 30.1301 28.2 30.1313 28.2 30.1325C28.2 30.1337 28.2 30.1349 28.2 30.1361C28.2 30.137 28.2 30.1382 28.2 30.1394C28.2 30.1406 28.2 30.1421 28.2 30.1433C28.2 30.1445 28.2 30.1457 28.2 30.1469C28.2 30.1481 28.2 30.1493 28.2 30.1507C28.2 30.1519 28.2 30.1531 28.2 30.1546C28.2 30.1558 28.2 30.1572 28.2 30.1584C28.2 30.1596 28.2 30.161 28.2 30.1622C28.2 30.1637 28.2 30.1651 28.2 30.1663C28.2 30.1678 28.2 30.1692 28.2 30.1704C28.2 30.1718 28.2 30.1733 28.2 30.1747C28.2 30.1759 28.2 30.1774 28.2 30.1788C28.2 30.1802 28.2 30.1817 28.2 30.1831C28.2 30.1846 28.2 30.186 28.2 30.1874C28.2 30.1889 28.2 30.1906 28.2 30.192C28.2 30.1934 28.2 30.1949 28.2 30.1963C28.2 30.198 28.2 30.1994 28.2 30.2009C28.2 30.2026 28.2 30.204 28.2 30.2057C28.2 30.2071 28.2 30.2088 28.2 30.2102C28.2 30.2119 28.2 30.2136 28.2 30.215C28.2 30.2167 28.2 30.2184 28.2 30.2201C28.2 30.2215 28.2 30.2232 28.2 30.2249C28.2 30.2266 28.2 30.2282 28.2 30.2299C28.2 30.2316 28.2 30.2333 28.2 30.235C28.2 30.2366 28.2 30.2383 28.2 30.24C28.2 30.2419 28.2 30.2436 28.2 30.2453C28.2 30.2472 28.2 30.2489 28.2 30.2506C28.2 30.2525 28.2 30.2542 28.2 30.2561C28.2 30.2578 28.2 30.2597 28.2 30.2614C28.2 30.2633 28.2 30.2652 28.2 30.2669C28.2 30.2688 28.2 30.2707 28.2 30.2726C28.2 30.2746 28.2 30.2762 28.2 30.2782C28.2 30.2801 28.2 30.282 28.2 30.2839C28.2 30.2858 28.2 30.288 28.2 30.2899C28.2 30.2918 28.2 30.2938 28.2 30.2957C28.2 30.2978 28.2 30.2998 28.2 30.3017C28.2 30.3038 28.2 30.3058 28.2 30.3079C28.2 30.3098 28.2 30.312 28.2 30.3139C28.2 30.3161 28.2 30.3182 28.2 30.3202C28.2 30.3223 28.2 30.3245 28.2 30.3266C28.2 30.3286 28.2 30.3307 28.2 30.3329C28.2 30.335 28.2 30.3372 28.2 30.3394C28.2 30.3415 28.2 30.3437 28.2 30.3461C28.2 30.3482 28.2 30.3504 28.2 30.3526C28.2 30.355 28.2 30.3571 28.2 30.3593C28.2 30.3617 28.2 30.3638 28.2 30.3662C28.2 30.3684 28.2 30.3708 28.2 30.3732C28.2 30.3754 28.2 30.3778 28.2 30.3802C28.2 30.3826 28.2 30.3847 28.2 30.3871C28.2 30.3895 28.2 30.3919 28.2 30.3943C28.2 30.3967 28.2 30.3991 28.2 30.4015C28.2 30.4042 28.2 30.4066 28.2 30.409C28.2 30.4114 28.2 30.414 28.2 30.4164C28.2 30.4188 28.2 30.4214 28.2 30.4238C28.2 30.4265 28.2 30.4289 28.2 30.4315C28.2 30.4342 28.2 30.4366 28.2 30.4392C28.2 30.4418 28.2 30.4445 28.2 30.4471C28.2 30.4498 28.2 30.4524 28.2 30.455C28.2 30.4577 28.2 30.4603 28.2 30.463C28.2 30.4656 28.2 30.4682 28.2 30.4709C28.2 30.4738 28.2 30.4764 28.2 30.4793C28.2 30.4819 28.2 30.4846 28.2 30.4874C28.2 30.4901 28.2 30.493 28.2 30.4958C28.2 30.4985 28.2 30.5014 28.2 30.5042C28.2 30.5071 28.2 30.51 28.2 30.5129C28.2 30.5158 28.2 30.5186 28.2 30.5215C28.2 30.5244 28.2 30.5273 28.2 30.5302C28.2 30.533 28.2 30.5359 28.2 30.539C28.2 30.5419 28.2 30.545 28.2 30.5479C28.2 30.551 28.2 30.5539 28.2 30.557C28.2 30.5599 28.2 30.563 28.2 30.5662C28.2 30.569 28.2 30.5722 28.2 30.5753C28.2 30.5784 28.2 30.5815 28.2 30.5846C28.2 30.5878 28.2 30.5909 28.2 30.594C28.2 30.5971 28.2 30.6005 28.2 30.6036C28.2 30.6067 28.2 30.6101 28.2 30.6132C28.2 30.6166 28.2 30.6197 28.2 30.623C28.2 30.6262 28.2 30.6295 28.2 30.6329C28.2 30.636 28.2 30.6394 28.2 30.6427C28.2 30.6461 28.2 30.6494 28.2 30.6528C28.2 30.6562 28.2 30.6595 28.2 30.6629C28.2 30.6662 28.2 30.6698 28.2 30.6732C28.2 30.6766 28.2 30.6802 28.2 30.6835C28.2 30.6871 28.2 30.6905 28.2 30.6941C28.2 30.6974 28.2 30.701 28.2 30.7046C28.2 30.7082 28.2 30.7116 28.2 30.7152C28.2 30.7188 28.2 30.7224 28.2 30.726C28.2 30.7296 28.2 30.7332 28.2 30.737C28.2 30.7406 28.2 30.7442 28.2 30.7478C28.2 30.7517 28.2 30.7553 28.2 30.7591C28.2 30.7627 28.2 30.7666 28.2 30.7702C28.2 30.774 28.2 30.7778 28.2 30.7817C28.2 30.7853 28.2 30.7891 28.2 30.793C28.2 30.7968 28.2 30.8006 28.2 30.8045C28.2 30.8083 28.2 30.8124 28.2 30.8162C28.2 30.8201 28.2 30.8242 28.2 30.828C28.2 30.8318 28.2 30.8359 28.2 30.84C28.2 30.8438 28.2 30.8479 28.2 30.852C28.2 30.8558 28.2 30.8599 28.2 30.864C28.2 30.8681 28.2 30.8722 28.2 30.8762C28.2 30.8803 28.2 30.8844 28.2 30.8885C28.2 30.8928 28.2 30.8969 28.2 30.901C28.2 30.9053 28.2 30.9094 28.2 30.9137C28.2 30.9178 28.2 30.9221 28.2 30.9262C28.2 30.9305 28.2 30.9348 28.2 30.9391C28.2 30.9434 28.2 30.9478 28.2 30.9521C28.2 30.9564 28.2 30.9607 28.2 30.965C28.2 30.9694 28.2 30.9737 28.2 30.9782C28.2 30.9826 28.2 30.9871 28.2 30.9914C28.2 30.996 28.2 31.0003 28.2 31.0049C28.2 31.0094 28.2 31.0138 28.2 31.0183C28.2 31.0229 28.2 31.0274 28.2 31.032C28.2 31.0366 28.2 31.0411 28.2 31.0459C28.2 31.0505 28.2 31.055 28.2 31.0596C28.2 31.0644 28.2 31.069 28.2 31.0738C28.2 31.0783 28.2 31.0831 28.2 31.0879C28.2 31.0925 28.2 31.0973 28.2 31.1021C28.2 31.1069 28.2 31.1117 28.2 31.1165C28.2 31.1213 28.2 31.1261 28.2 31.1309C28.2 31.1357 28.2 31.1407 28.2 31.1455C28.2 31.1506 28.2 31.1554 28.2 31.1604C28.2 31.1652 28.2 31.1702 28.2 31.1753C28.2 31.1801 28.2 31.1851 28.2 31.1902C28.2 31.1952 28.2 31.2002 28.2 31.2053C28.2 31.2103 28.2 31.2154 28.2 31.2206C28.2 31.2257 28.2 31.2307 28.2 31.236C28.2 31.241 28.2 31.2463 28.2 31.2514C28.2 31.2566 28.2 31.2619 28.2 31.2672C28.2 31.2722 28.2 31.2775 28.2 31.2828C28.2 31.2881 28.2 31.2934 28.2 31.2989C28.2 31.3042 28.2 31.3094 28.2 31.3147C28.2 31.3202 28.2 31.3255 28.2 31.331C28.2 31.3363 28.2 31.3418 28.2 31.3474C28.2 31.3526 28.2 31.3582 28.2 31.3637C28.2 31.3692 28.2 31.3747 28.2 31.3802C28.2 31.3858 28.2 31.3913 28.2 31.397C28.2 31.4026 28.2 31.4081 28.2 31.4138C28.2 31.4194 28.2 31.4251 28.2 31.4309C28.2 31.4364 28.2 31.4422 28.2 31.4479C28.2 31.4537 28.2 31.4594 28.2 31.4652C28.2 31.471 28.2 31.4767 28.2 31.4825C28.2 31.4882 28.2 31.4942 28.2 31.5C28.2 31.5058 28.2 31.5118 28.2 31.5178C28.2 31.5235 28.2 31.5295 28.2 31.5355C28.2 31.5413 28.2 31.5473 28.2 31.5533C28.2 31.5593 28.2 31.5653 28.2 31.5715C28.2 31.5775 28.2 31.5835 28.2 31.5895C28.2 31.5958 28.2 31.6018 28.2 31.608C28.2 31.614 28.2 31.6202 28.2 31.6265C28.2 31.6327 28.2 31.6387 28.2 31.645C28.2 31.6512 28.2 31.6574 28.2 31.6639C28.2 31.6702 28.2 31.6764 28.2 31.6826C28.2 31.6891 28.2 31.6954 28.2 31.7018C28.2 31.7081 28.2 31.7146 28.2 31.721C28.2 31.7275 28.2 31.7338 28.2 31.7402C28.2 31.7467 28.2 31.7532 28.2 31.7597C28.2 31.7664 28.2 31.7729 28.2 31.7794C28.2 31.7861 28.2 31.7926 28.2 31.7993C28.2 31.8058 28.2 31.8125 28.2 31.8192C28.2 31.8257 28.2 31.8324 28.2 31.8391C28.2 31.8458 28.2 31.8526 28.2 31.8593C28.2 31.8662 28.2 31.873 28.2 31.8797C28.2 31.8866 28.2 31.8934 28.2 31.9003C28.2 31.907 28.2 31.914 28.2 31.921C28.2 31.9279 28.2 31.9346 28.2 31.9416C28.2 31.9486 28.2 31.9558 28.2 31.9627C28.2 31.9697 28.2 31.9766 28.2 31.9838C28.2 31.9908 28.2 31.998 28.2 32.005C28.2 32.0122 28.2 32.0194 28.2 32.0263C28.2 32.0335 28.2 32.0407 28.2 32.0479C28.2 32.0551 28.2 32.0623 28.2 32.0698C28.2 32.077 28.2 32.0842 28.2 32.0916C28.2 32.0988 28.2 32.1062 28.2 32.1137C28.2 32.1209 28.2 32.1283 28.2 32.1358C28.2 32.1432 28.2 32.1506 28.2 32.1581C28.2 32.1655 28.2 32.173 28.2 32.1806C28.2 32.1881 28.2 32.1955 28.2 32.2032C28.2 32.2106 28.2 32.2183 28.2 32.226C28.2 32.2337 28.2 32.2414 28.2 32.249C28.2 32.2565 28.2 32.2644 28.2 32.2721C28.2 32.2798 28.2 32.2874 28.2 32.2954C28.2 32.303 28.2 32.311 28.2 32.3186C28.2 32.3266 28.2 32.3345 28.2 32.3424C28.2 32.3501 28.2 32.358 28.2 32.3659C28.2 32.3741 28.2 32.382 28.2 32.3899C28.2 32.3978 28.2 32.406 28.2 32.4139C28.2 32.4221 28.2 32.43 28.2 32.4382C28.2 32.4463 28.2 32.4545 28.2 32.4626C28.2 32.4708 28.2 32.479 28.2 32.4871C28.2 32.4953 28.2 32.5037 28.2 32.5118C28.2 32.52 28.2 32.5284 28.2 32.5368C28.2 32.545 28.2 32.5534 28.2 32.5618C28.2 32.5702 28.2 32.5786 28.2 32.587C28.2 32.5954 28.2 32.6038 28.2 32.6124C28.2 32.6208 28.2 32.6292 28.2 32.6378C28.2 32.6465 28.2 32.6549 28.2 32.6635C28.2 32.6722 28.2 32.6808 28.2 32.6894C28.2 32.6981 28.2 32.7067 28.2 32.7154C28.2 32.724 28.2 32.7329 28.2 32.7415C28.2 32.7504 28.2 32.759 28.2 32.7679C28.2 32.7768 28.2 32.7857 28.2 32.7946C28.2 32.8034 28.2 32.8123 28.2 32.8212C28.2 32.8301 28.2 32.839 28.2 32.8481C28.2 32.857 28.2 32.8661 28.2 32.8752C28.2 32.8841 28.2 32.8932 28.2 32.9023C28.2 32.9114 28.2 32.9206 28.2 32.9297C28.2 32.9388 28.2 32.9479 28.2 32.9573C28.2 32.9664 28.2 32.9758 28.2 32.9849C28.2 32.9942 28.2 33.0036 28.2 33.013C28.2 33.0221 28.2 33.0314 28.2 33.041C28.2 33.0504 28.2 33.0598 28.2 33.0691C28.2 33.0787 28.2 33.0881 28.2 33.0977C28.2 33.107 28.2 33.1166 28.2 33.1262C28.2 33.1358 28.2 33.1454 28.2 33.155C28.2 33.1646 28.2 33.1742 28.2 33.1838C28.2 33.1937 28.2 33.2033 28.2 33.2131C28.2 33.2227 28.2 33.2326 28.2 33.2424C28.2 33.252 28.2 33.2618 28.2 33.2717C28.2 33.2818 28.2 33.2916 28.2 33.3014C28.2 33.3113 28.2 33.3214 28.2 33.3312C28.2 33.3413 28.2 33.3514 28.2 33.3612C28.2 33.3713 28.2 33.3814 28.2 33.3914C28.2 33.4015 28.2 33.4116 28.2 33.4219C28.2 33.432 28.2 33.4421 28.2 33.4524C28.2 33.4627 28.2 33.4728 28.2 33.4831C28.2 33.4934 28.2 33.5038 28.2 33.5141C28.2 33.5244 28.2 33.5347 28.2 33.545C28.2 33.5556 28.2 33.5659 28.2 33.5765C28.2 33.5868 28.2 33.5974 28.2 33.6079C28.2 33.6185 28.2 33.629 28.2 33.6396C28.2 33.6502 28.2 33.6607 28.2 33.6713C28.2 33.6821 28.2 33.6926 28.2 33.7034C28.2 33.714 28.2 33.7248 28.2 33.7356C28.2 33.7464 28.2 33.7572 28.2 33.768C28.2 33.7788 28.2 33.7896 28.2 33.8006C28.2 33.8114 28.2 33.8225 28.2 33.8333C28.2 33.8443 28.2 33.8554 28.2 33.8662C28.2 33.8772 28.2 33.8882 28.2 33.8995C28.2 33.9106 28.2 33.9216 28.2 33.9326C28.2 33.9439 28.2 33.955 28.2 33.9662C28.2 33.9775 28.2 33.9888 28.2 34.0001C28.2 34.0111 28.2 34.0226 28.2 34.0339C28.2 34.0452 28.2 34.0565 28.2 34.068C28.2 34.0793 28.2 34.0908 28.2 34.1023C28.2 34.1136 28.2 34.1251 28.2 34.1366C28.2 34.1482 28.2 34.1597 28.2 34.1714C28.2 34.183 28.2 34.1945 28.2 34.2062C28.2 34.218 28.2 34.2295 28.2 34.2413C28.2 34.253 28.2 34.2648 28.2 34.2766C28.2 34.2883 28.2 34.3001 28.2 34.3121C28.2 34.3238 28.2 34.3356 28.2 34.3476C28.2 34.3596 28.2 34.3714 28.2 34.3834C28.2 34.3954 28.2 34.4074 28.2 34.4194C28.2 34.4316 28.2 34.4436 28.2 34.4556C28.2 34.4678 28.2 34.4798 28.2 34.4921C28.2 34.5043 28.2 34.5166 28.2 34.5288C28.2 34.541 28.2 34.5533 28.2 34.5655C28.2 34.5778 28.2 34.5902 28.2 34.6025C28.2 34.615 28.2 34.6274 28.2 34.6397C28.2 34.6522 28.2 34.6646 28.2 34.6771C28.2 34.6896 28.2 34.7023 28.2 34.7148C28.2 34.7273 28.2 34.74 28.2 34.7527C28.2 34.7652 28.2 34.7779 28.2 34.7906C28.2 34.8034 28.2 34.8161 28.2 34.8288C28.2 34.8418 28.2 34.8545 28.2 34.8672C28.2 34.8802 28.2 34.8931 28.2 34.9058C28.2 34.9188 28.2 34.9318 28.2 34.9447C28.2 34.9577 28.2 34.9709 28.2 34.9838C28.2 34.9968 28.2 35.01 28.2 35.023C28.2 35.0362 28.2 35.0494 28.2 35.0626C28.2 35.0758 28.2 35.089 28.2 35.1022C28.2 35.1154 28.2 35.1288 28.2 35.142C28.2 35.1554 28.2 35.1686 28.2 35.1821C28.2 35.1955 28.2 35.209 28.2 35.2224C28.2 35.2358 28.2 35.2493 28.2 35.263C28.2 35.2764 28.2 35.2898 28.2 35.3035C28.2 35.3172 28.2 35.3309 28.2 35.3443C28.2 35.358 28.2 35.3719 28.2 35.3856C28.2 35.3993 28.2 35.413 28.2 35.4269C28.2 35.4406 28.2 35.4545 28.2 35.4684C28.2 35.4823 28.2 35.4962 28.2 35.5102C28.2 35.5241 28.2 35.538 28.2 35.5522C28.2 35.5661 28.2 35.5802 28.2 35.5942C28.2 35.6083 28.2 35.6225 28.2 35.6366C28.2 35.6508 28.2 35.665 28.2 35.6791C28.2 35.6935 28.2 35.7077 28.2 35.7221C28.2 35.7362 28.2 35.7506 28.2 35.765C28.2 35.7794 28.2 35.7938 28.2 35.8082C28.2 35.8226 28.2 35.8373 28.2 35.8517C28.2 35.8663 28.2 35.8807 28.2 35.8954C28.2 35.91 28.2 35.9246 28.2 35.9393C28.2 35.9539 28.2 35.9688 28.2 35.9834C28.2 35.9981 28.2 36.013 28.2 36.0278C28.2 36.0425 28.2 36.0574 28.2 36.0722C28.2 36.0871 28.2 36.102 28.2 36.1171C28.2 36.132 28.2 36.1469 28.2 36.162C28.2 36.1771 28.2 36.192 28.2 36.2071C28.2 36.2222 28.2 36.2374 28.2 36.2527C28.2 36.2678 28.2 36.283 28.2 36.2983C28.2 36.3134 28.2 36.3288 28.2 36.3442C28.2 36.3595 28.2 36.3749 28.2 36.3902C28.2 36.4056 28.2 36.421 28.2 36.4366C28.2 36.4519 28.2 36.4675 28.2 36.4831C28.2 36.4985 28.2 36.5141 28.2 36.5299C28.2 36.5455 28.2 36.5611 28.2 36.5767C28.2 36.5926 28.2 36.6082 28.2 36.624C28.2 36.6398 28.2 36.6557 28.2 36.6715C28.2 36.6874 28.2 36.7032 28.2 36.719C28.2 36.7349 28.2 36.751 28.2 36.767C28.2 36.7829 28.2 36.799 28.2 36.815C28.2 36.8311 28.2 36.8472 28.2 36.8633C28.2 36.8796 28.2 36.8957 28.2 36.912C28.2 36.9281 28.2 36.9444 28.2 36.9607C28.2 36.977 28.2 36.9934 28.2 37.0097C28.2 37.0262 28.2 37.0426 28.2 37.0591C28.2 37.0754 28.2 37.092 28.2 37.1086C28.2 37.1251 28.2 37.1417 28.2 37.1582C28.2 37.1748 28.2 37.1914 28.2 37.2082C28.2 37.2247 28.2 37.2415 28.2 37.2583C28.2 37.2751 28.2 37.2919 28.2 37.3087C28.2 37.3255 28.2 37.3423 28.2 37.3594C28.2 37.3762 28.2 37.3932 28.2 37.4102C28.2 37.4273 28.2 37.4443 28.2 37.4614C28.2 37.4784 28.2 37.4954 28.2 37.5127C28.2 37.5298 28.2 37.547 28.2 37.5643C28.2 37.5814 28.2 37.5986 28.2 37.6162C28.2 37.6334 28.2 37.6507 28.2 37.668C28.2 37.6855 28.2 37.7028 28.2 37.7203C28.2 37.7378 28.2 37.7554 28.2 37.7729C28.2 37.7904 28.2 37.8079 28.2 37.8257C28.2 37.8432 28.2 37.861 28.2 37.8787C28.2 37.8962 28.2 37.914 28.2 37.9318C28.2 37.9498 28.2 37.9675 28.2 37.9853C28.2 38.0033 28.2 38.021 28.2 38.039C28.2 38.057 28.2 38.075 28.2 38.093C28.2 38.111 28.2 38.129 28.2 38.1473C28.2 38.1653 28.2 38.1835 28.2 38.2018C28.2 38.2198 28.2 38.238 28.2 38.2562C28.2 38.2745 28.2 38.293 28.2 38.3112C28.2 38.3297 28.2 38.3479 28.2 38.3664C28.2 38.3849 28.2 38.4034 28.2 38.4218C28.2 38.4403 28.2 38.4588 28.2 38.4775C28.2 38.496 28.2 38.5147 28.2 38.5334C28.2 38.5519 28.2 38.5706 28.2 38.5896C28.2 38.6083 28.2 38.627 28.2 38.646C28.2 38.6647 28.2 38.6837 28.2 38.7024C28.2 38.7214 28.2 38.7403 28.2 38.7593C28.2 38.7785 28.2 38.7974 28.2 38.8166C28.2 38.8356 28.2 38.8548 28.2 38.874C28.2 38.893 28.2 38.9122 28.2 38.9316C28.2 38.9508 28.2 38.97 28.2 38.9894C28.2 39.0086 28.2 39.0281 28.2 39.0475C28.2 39.067 28.2 39.0864 28.2 39.1058C28.2 39.1253 28.2 39.145 28.2 39.1644C28.2 39.1841 28.2 39.2038 28.2 39.2234C28.2 39.2431 28.2 39.2628 28.2 39.2825C28.2 39.3022 28.2 39.3221 28.2 39.3418C28.2 39.3617 28.2 39.3816 28.2 39.4015C28.2 39.4214 28.2 39.4414 28.2 39.4613C28.2 39.4814 28.2 39.5014 28.2 39.5215C28.2 39.5417 28.2 39.5618 28.2 39.582C28.2 39.6022 28.2 39.6223 28.2 39.6425C28.2 39.6629 28.2 39.683 28.2 39.7034C28.2 39.7238 28.2 39.7442 28.2 39.7646C28.2 39.785 28.2 39.8054 28.2 39.8261C28.2 39.8465 28.2 39.8671 28.2 39.8878C28.2 39.9084 28.2 39.929 28.2 39.9497C28.2 39.9703 28.2 39.991 28.2 40.0118C28.2 40.0325 28.2 40.0534 28.2 40.0742C28.2 40.0951 28.2 40.116 28.2 40.1369C28.2 40.158 28.2 40.1789 28.2 40.2C28.2 40.2209 28.2 40.242 28.2 40.2631C28.2 40.2842 28.2 40.3054 28.2 40.3267C28.2 40.3478 28.2 40.369 28.2 40.3903C28.2 40.4117 28.2 40.433 28.2 40.4544C28.2 40.4758 28.2 40.4971 28.2 40.5187C28.2 40.5401 28.2 40.5617 28.2 40.5833C28.2 40.6046 28.2 40.6262 28.2 40.6481C28.2 40.6697 28.2 40.6913 28.2 40.7131C28.2 40.7347 28.2 40.7566 28.2 40.7784C28.2 40.8002 28.2 40.8221 28.2 40.8439C28.2 40.8658 28.2 40.8878 28.2 40.9097C28.2 40.9318 28.2 40.9538 28.2 40.9759C28.2 40.998 28.2 41.0201 28.2 41.0424C28.2 41.0645 28.2 41.0868 28.2 41.1089C28.2 41.1312 28.2 41.1535 28.2 41.1758C28.2 41.1982 28.2 41.2207 28.2 41.243C28.2 41.2656 28.2 41.2879 28.2 41.3105C28.2 41.333 28.2 41.3556 28.2 41.3782C28.2 41.401 28.2 41.4235 28.2 41.4463C28.2 41.4689 28.2 41.4917 28.2 41.5145C28.2 41.5373 28.2 41.5601 28.2 41.5831C28.2 41.6059 28.2 41.629 28.2 41.6518C28.2 41.6748 28.2 41.6978 28.2 41.7209C28.2 41.7439 28.2 41.7672 28.2 41.7902C28.2 41.8135 28.2 41.8366 28.2 41.8598C28.2 41.8831 28.2 41.9064 28.2 41.9299C28.2 41.9532 28.2 41.9765 28.2 42H31.8C31.8 41.9765 31.8 41.9532 31.8 41.9299C31.8 41.9064 31.8 41.8831 31.8 41.8598C31.8 41.8366 31.8 41.8135 31.8 41.7902C31.8 41.7672 31.8 41.7439 31.8 41.7209C31.8 41.6978 31.8 41.6748 31.8 41.6518C31.8 41.629 31.8 41.6059 31.8 41.5831C31.8 41.5601 31.8 41.5373 31.8 41.5145C31.8 41.4917 31.8 41.4689 31.8 41.4463C31.8 41.4235 31.8 41.401 31.8 41.3782C31.8 41.3556 31.8 41.333 31.8 41.3105C31.8 41.2879 31.8 41.2656 31.8 41.243C31.8 41.2207 31.8 41.1982 31.8 41.1758C31.8 41.1535 31.8 41.1312 31.8 41.1089C31.8 41.0868 31.8 41.0645 31.8 41.0424C31.8 41.0201 31.8 40.998 31.8 40.9759C31.8 40.9538 31.8 40.9318 31.8 40.9097C31.8 40.8878 31.8 40.8658 31.8 40.8439C31.8 40.8221 31.8 40.8002 31.8 40.7784C31.8 40.7566 31.8 40.7347 31.8 40.7131C31.8 40.6913 31.8 40.6697 31.8 40.6481C31.8 40.6262 31.8 40.6046 31.8 40.5833C31.8 40.5617 31.8 40.5401 31.8 40.5187C31.8 40.4971 31.8 40.4758 31.8 40.4544C31.8 40.433 31.8 40.4117 31.8 40.3903C31.8 40.369 31.8 40.3478 31.8 40.3267C31.8 40.3054 31.8 40.2842 31.8 40.2631C31.8 40.242 31.8 40.2209 31.8 40.2C31.8 40.1789 31.8 40.158 31.8 40.1369C31.8 40.116 31.8 40.0951 31.8 40.0742C31.8 40.0534 31.8 40.0325 31.8 40.0118C31.8 39.991 31.8 39.9703 31.8 39.9497C31.8 39.929 31.8 39.9084 31.8 39.8878C31.8 39.8671 31.8 39.8465 31.8 39.8261C31.8 39.8054 31.8 39.785 31.8 39.7646C31.8 39.7442 31.8 39.7238 31.8 39.7034C31.8 39.683 31.8 39.6629 31.8 39.6425C31.8 39.6223 31.8 39.6022 31.8 39.582C31.8 39.5618 31.8 39.5417 31.8 39.5215C31.8 39.5014 31.8 39.4814 31.8 39.4613C31.8 39.4414 31.8 39.4214 31.8 39.4015C31.8 39.3816 31.8 39.3617 31.8 39.3418C31.8 39.3221 31.8 39.3022 31.8 39.2825C31.8 39.2628 31.8 39.2431 31.8 39.2234C31.8 39.2038 31.8 39.1841 31.8 39.1644C31.8 39.145 31.8 39.1253 31.8 39.1058C31.8 39.0864 31.8 39.067 31.8 39.0475C31.8 39.0281 31.8 39.0086 31.8 38.9894C31.8 38.97 31.8 38.9508 31.8 38.9316C31.8 38.9122 31.8 38.893 31.8 38.874C31.8 38.8548 31.8 38.8356 31.8 38.8166C31.8 38.7974 31.8 38.7785 31.8 38.7593C31.8 38.7403 31.8 38.7214 31.8 38.7024C31.8 38.6837 31.8 38.6647 31.8 38.646C31.8 38.627 31.8 38.6083 31.8 38.5896C31.8 38.5706 31.8 38.5519 31.8 38.5334C31.8 38.5147 31.8 38.496 31.8 38.4775C31.8 38.4588 31.8 38.4403 31.8 38.4218C31.8 38.4034 31.8 38.3849 31.8 38.3664C31.8 38.3479 31.8 38.3297 31.8 38.3112C31.8 38.293 31.8 38.2745 31.8 38.2562C31.8 38.238 31.8 38.2198 31.8 38.2018C31.8 38.1835 31.8 38.1653 31.8 38.1473C31.8 38.129 31.8 38.111 31.8 38.093C31.8 38.075 31.8 38.057 31.8 38.039C31.8 38.021 31.8 38.0033 31.8 37.9853C31.8 37.9675 31.8 37.9498 31.8 37.9318C31.8 37.914 31.8 37.8962 31.8 37.8787C31.8 37.861 31.8 37.8432 31.8 37.8257C31.8 37.8079 31.8 37.7904 31.8 37.7729C31.8 37.7554 31.8 37.7378 31.8 37.7203C31.8 37.7028 31.8 37.6855 31.8 37.668C31.8 37.6507 31.8 37.6334 31.8 37.6162C31.8 37.5986 31.8 37.5814 31.8 37.5643C31.8 37.547 31.8 37.5298 31.8 37.5127C31.8 37.4954 31.8 37.4784 31.8 37.4614C31.8 37.4443 31.8 37.4273 31.8 37.4102C31.8 37.3932 31.8 37.3762 31.8 37.3594C31.8 37.3423 31.8 37.3255 31.8 37.3087C31.8 37.2919 31.8 37.2751 31.8 37.2583C31.8 37.2415 31.8 37.2247 31.8 37.2082C31.8 37.1914 31.8 37.1748 31.8 37.1582C31.8 37.1417 31.8 37.1251 31.8 37.1086C31.8 37.092 31.8 37.0754 31.8 37.0591C31.8 37.0426 31.8 37.0262 31.8 37.0097C31.8 36.9934 31.8 36.977 31.8 36.9607C31.8 36.9444 31.8 36.9281 31.8 36.912C31.8 36.8957 31.8 36.8796 31.8 36.8633C31.8 36.8472 31.8 36.8311 31.8 36.815C31.8 36.799 31.8 36.7829 31.8 36.767C31.8 36.751 31.8 36.7349 31.8 36.719C31.8 36.7032 31.8 36.6874 31.8 36.6715C31.8 36.6557 31.8 36.6398 31.8 36.624C31.8 36.6082 31.8 36.5926 31.8 36.5767C31.8 36.5611 31.8 36.5455 31.8 36.5299C31.8 36.5141 31.8 36.4985 31.8 36.4831C31.8 36.4675 31.8 36.4519 31.8 36.4366C31.8 36.421 31.8 36.4056 31.8 36.3902C31.8 36.3749 31.8 36.3595 31.8 36.3442C31.8 36.3288 31.8 36.3134 31.8 36.2983C31.8 36.283 31.8 36.2678 31.8 36.2527C31.8 36.2374 31.8 36.2222 31.8 36.2071C31.8 36.192 31.8 36.1771 31.8 36.162C31.8 36.1469 31.8 36.132 31.8 36.1171C31.8 36.102 31.8 36.0871 31.8 36.0722C31.8 36.0574 31.8 36.0425 31.8 36.0278C31.8 36.013 31.8 35.9981 31.8 35.9834C31.8 35.9688 31.8 35.9539 31.8 35.9393C31.8 35.9246 31.8 35.91 31.8 35.8954C31.8 35.8807 31.8 35.8663 31.8 35.8517C31.8 35.8373 31.8 35.8226 31.8 35.8082C31.8 35.7938 31.8 35.7794 31.8 35.765C31.8 35.7506 31.8 35.7362 31.8 35.7221C31.8 35.7077 31.8 35.6935 31.8 35.6791C31.8 35.665 31.8 35.6508 31.8 35.6366C31.8 35.6225 31.8 35.6083 31.8 35.5942C31.8 35.5802 31.8 35.5661 31.8 35.5522C31.8 35.538 31.8 35.5241 31.8 35.5102C31.8 35.4962 31.8 35.4823 31.8 35.4684C31.8 35.4545 31.8 35.4406 31.8 35.4269C31.8 35.413 31.8 35.3993 31.8 35.3856C31.8 35.3719 31.8 35.358 31.8 35.3443C31.8 35.3309 31.8 35.3172 31.8 35.3035C31.8 35.2898 31.8 35.2764 31.8 35.263C31.8 35.2493 31.8 35.2358 31.8 35.2224C31.8 35.209 31.8 35.1955 31.8 35.1821C31.8 35.1686 31.8 35.1554 31.8 35.142C31.8 35.1288 31.8 35.1154 31.8 35.1022C31.8 35.089 31.8 35.0758 31.8 35.0626C31.8 35.0494 31.8 35.0362 31.8 35.023C31.8 35.01 31.8 34.9968 31.8 34.9838C31.8 34.9709 31.8 34.9577 31.8 34.9447C31.8 34.9318 31.8 34.9188 31.8 34.9058C31.8 34.8931 31.8 34.8802 31.8 34.8672C31.8 34.8545 31.8 34.8418 31.8 34.8288C31.8 34.8161 31.8 34.8034 31.8 34.7906C31.8 34.7779 31.8 34.7652 31.8 34.7527C31.8 34.74 31.8 34.7273 31.8 34.7148C31.8 34.7023 31.8 34.6896 31.8 34.6771C31.8 34.6646 31.8 34.6522 31.8 34.6397C31.8 34.6274 31.8 34.615 31.8 34.6025C31.8 34.5902 31.8 34.5778 31.8 34.5655C31.8 34.5533 31.8 34.541 31.8 34.5288C31.8 34.5166 31.8 34.5043 31.8 34.4921C31.8 34.4798 31.8 34.4678 31.8 34.4556C31.8 34.4436 31.8 34.4316 31.8 34.4194C31.8 34.4074 31.8 34.3954 31.8 34.3834C31.8 34.3714 31.8 34.3596 31.8 34.3476C31.8 34.3356 31.8 34.3238 31.8 34.3121C31.8 34.3001 31.8 34.2883 31.8 34.2766C31.8 34.2648 31.8 34.253 31.8 34.2413C31.8 34.2295 31.8 34.218 31.8 34.2062C31.8 34.1945 31.8 34.183 31.8 34.1714C31.8 34.1597 31.8 34.1482 31.8 34.1366C31.8 34.1251 31.8 34.1136 31.8 34.1023C31.8 34.0908 31.8 34.0793 31.8 34.068C31.8 34.0565 31.8 34.0452 31.8 34.0339C31.8 34.0226 31.8 34.0111 31.8 34.0001C31.8 33.9888 31.8 33.9775 31.8 33.9662C31.8 33.955 31.8 33.9439 31.8 33.9326C31.8 33.9216 31.8 33.9106 31.8 33.8995C31.8 33.8882 31.8 33.8772 31.8 33.8662C31.8 33.8554 31.8 33.8443 31.8 33.8333C31.8 33.8225 31.8 33.8114 31.8 33.8006C31.8 33.7896 31.8 33.7788 31.8 33.768C31.8 33.7572 31.8 33.7464 31.8 33.7356C31.8 33.7248 31.8 33.714 31.8 33.7034C31.8 33.6926 31.8 33.6821 31.8 33.6713C31.8 33.6607 31.8 33.6502 31.8 33.6396C31.8 33.629 31.8 33.6185 31.8 33.6079C31.8 33.5974 31.8 33.5868 31.8 33.5765C31.8 33.5659 31.8 33.5556 31.8 33.545C31.8 33.5347 31.8 33.5244 31.8 33.5141C31.8 33.5038 31.8 33.4934 31.8 33.4831C31.8 33.4728 31.8 33.4627 31.8 33.4524C31.8 33.4421 31.8 33.432 31.8 33.4219C31.8 33.4116 31.8 33.4015 31.8 33.3914C31.8 33.3814 31.8 33.3713 31.8 33.3612C31.8 33.3514 31.8 33.3413 31.8 33.3312C31.8 33.3214 31.8 33.3113 31.8 33.3014C31.8 33.2916 31.8 33.2818 31.8 33.2717C31.8 33.2618 31.8 33.252 31.8 33.2424C31.8 33.2326 31.8 33.2227 31.8 33.2131C31.8 33.2033 31.8 33.1937 31.8 33.1838C31.8 33.1742 31.8 33.1646 31.8 33.155C31.8 33.1454 31.8 33.1358 31.8 33.1262C31.8 33.1166 31.8 33.107 31.8 33.0977C31.8 33.0881 31.8 33.0787 31.8 33.0691C31.8 33.0598 31.8 33.0504 31.8 33.041C31.8 33.0314 31.8 33.0221 31.8 33.013C31.8 33.0036 31.8 32.9942 31.8 32.9849C31.8 32.9758 31.8 32.9664 31.8 32.9573C31.8 32.9479 31.8 32.9388 31.8 32.9297C31.8 32.9206 31.8 32.9114 31.8 32.9023C31.8 32.8932 31.8 32.8841 31.8 32.8752C31.8 32.8661 31.8 32.857 31.8 32.8481C31.8 32.839 31.8 32.8301 31.8 32.8212C31.8 32.8123 31.8 32.8034 31.8 32.7946C31.8 32.7857 31.8 32.7768 31.8 32.7679C31.8 32.759 31.8 32.7504 31.8 32.7415C31.8 32.7329 31.8 32.724 31.8 32.7154C31.8 32.7067 31.8 32.6981 31.8 32.6894C31.8 32.6808 31.8 32.6722 31.8 32.6635C31.8 32.6549 31.8 32.6465 31.8 32.6378C31.8 32.6292 31.8 32.6208 31.8 32.6124C31.8 32.6038 31.8 32.5954 31.8 32.587C31.8 32.5786 31.8 32.5702 31.8 32.5618C31.8 32.5534 31.8 32.545 31.8 32.5368C31.8 32.5284 31.8 32.52 31.8 32.5118C31.8 32.5037 31.8 32.4953 31.8 32.4871C31.8 32.479 31.8 32.4708 31.8 32.4626C31.8 32.4545 31.8 32.4463 31.8 32.4382C31.8 32.43 31.8 32.4221 31.8 32.4139C31.8 32.406 31.8 32.3978 31.8 32.3899C31.8 32.382 31.8 32.3741 31.8 32.3659C31.8 32.358 31.8 32.3501 31.8 32.3424C31.8 32.3345 31.8 32.3266 31.8 32.3186C31.8 32.311 31.8 32.303 31.8 32.2954C31.8 32.2874 31.8 32.2798 31.8 32.2721C31.8 32.2644 31.8 32.2565 31.8 32.249C31.8 32.2414 31.8 32.2337 31.8 32.226C31.8 32.2183 31.8 32.2106 31.8 32.2032C31.8 32.1955 31.8 32.1881 31.8 32.1806C31.8 32.173 31.8 32.1655 31.8 32.1581C31.8 32.1506 31.8 32.1432 31.8 32.1358C31.8 32.1283 31.8 32.1209 31.8 32.1137C31.8 32.1062 31.8 32.0988 31.8 32.0916C31.8 32.0842 31.8 32.077 31.8 32.0698C31.8 32.0623 31.8 32.0551 31.8 32.0479C31.8 32.0407 31.8 32.0335 31.8 32.0263C31.8 32.0194 31.8 32.0122 31.8 32.005C31.8 31.998 31.8 31.9908 31.8 31.9838C31.8 31.9766 31.8 31.9697 31.8 31.9627C31.8 31.9558 31.8 31.9486 31.8 31.9416C31.8 31.9346 31.8 31.9279 31.8 31.921C31.8 31.914 31.8 31.907 31.8 31.9003C31.8 31.8934 31.8 31.8866 31.8 31.8797C31.8 31.873 31.8 31.8662 31.8 31.8593C31.8 31.8526 31.8 31.8458 31.8 31.8391C31.8 31.8324 31.8 31.8257 31.8 31.8192C31.8 31.8125 31.8 31.8058 31.8 31.7993C31.8 31.7926 31.8 31.7861 31.8 31.7794C31.8 31.7729 31.8 31.7664 31.8 31.7597C31.8 31.7532 31.8 31.7467 31.8 31.7402C31.8 31.7338 31.8 31.7275 31.8 31.721C31.8 31.7146 31.8 31.7081 31.8 31.7018C31.8 31.6954 31.8 31.6891 31.8 31.6826C31.8 31.6764 31.8 31.6702 31.8 31.6639C31.8 31.6574 31.8 31.6512 31.8 31.645C31.8 31.6387 31.8 31.6327 31.8 31.6265C31.8 31.6202 31.8 31.614 31.8 31.608C31.8 31.6018 31.8 31.5958 31.8 31.5895C31.8 31.5835 31.8 31.5775 31.8 31.5715C31.8 31.5653 31.8 31.5593 31.8 31.5533C31.8 31.5473 31.8 31.5413 31.8 31.5355C31.8 31.5295 31.8 31.5235 31.8 31.5178C31.8 31.5118 31.8 31.5058 31.8 31.5C31.8 31.4942 31.8 31.4882 31.8 31.4825C31.8 31.4767 31.8 31.471 31.8 31.4652C31.8 31.4594 31.8 31.4537 31.8 31.4479C31.8 31.4422 31.8 31.4364 31.8 31.4309C31.8 31.4251 31.8 31.4194 31.8 31.4138C31.8 31.4081 31.8 31.4026 31.8 31.397C31.8 31.3913 31.8 31.3858 31.8 31.3802C31.8 31.3747 31.8 31.3692 31.8 31.3637C31.8 31.3582 31.8 31.3526 31.8 31.3474C31.8 31.3418 31.8 31.3363 31.8 31.331C31.8 31.3255 31.8 31.3202 31.8 31.3147C31.8 31.3094 31.8 31.3042 31.8 31.2989C31.8 31.2934 31.8 31.2881 31.8 31.2828C31.8 31.2775 31.8 31.2722 31.8 31.2672C31.8 31.2619 31.8 31.2566 31.8 31.2514C31.8 31.2463 31.8 31.241 31.8 31.236C31.8 31.2307 31.8 31.2257 31.8 31.2206C31.8 31.2154 31.8 31.2103 31.8 31.2053C31.8 31.2002 31.8 31.1952 31.8 31.1902C31.8 31.1851 31.8 31.1801 31.8 31.1753C31.8 31.1702 31.8 31.1652 31.8 31.1604C31.8 31.1554 31.8 31.1506 31.8 31.1455C31.8 31.1407 31.8 31.1357 31.8 31.1309C31.8 31.1261 31.8 31.1213 31.8 31.1165C31.8 31.1117 31.8 31.1069 31.8 31.1021C31.8 31.0973 31.8 31.0925 31.8 31.0879C31.8 31.0831 31.8 31.0783 31.8 31.0738C31.8 31.069 31.8 31.0644 31.8 31.0596C31.8 31.055 31.8 31.0505 31.8 31.0459C31.8 31.0411 31.8 31.0366 31.8 31.032C31.8 31.0274 31.8 31.0229 31.8 31.0183C31.8 31.0138 31.8 31.0094 31.8 31.0049C31.8 31.0003 31.8 30.996 31.8 30.9914C31.8 30.9871 31.8 30.9826 31.8 30.9782C31.8 30.9737 31.8 30.9694 31.8 30.965C31.8 30.9607 31.8 30.9564 31.8 30.9521C31.8 30.9478 31.8 30.9434 31.8 30.9391C31.8 30.9348 31.8 30.9305 31.8 30.9262C31.8 30.9221 31.8 30.9178 31.8 30.9137C31.8 30.9094 31.8 30.9053 31.8 30.901C31.8 30.8969 31.8 30.8928 31.8 30.8885C31.8 30.8844 31.8 30.8803 31.8 30.8762C31.8 30.8722 31.8 30.8681 31.8 30.864C31.8 30.8599 31.8 30.8558 31.8 30.852C31.8 30.8479 31.8 30.8438 31.8 30.84C31.8 30.8359 31.8 30.8318 31.8 30.828C31.8 30.8242 31.8 30.8201 31.8 30.8162C31.8 30.8124 31.8 30.8083 31.8 30.8045C31.8 30.8006 31.8 30.7968 31.8 30.793C31.8 30.7891 31.8 30.7853 31.8 30.7817C31.8 30.7778 31.8 30.774 31.8 30.7702C31.8 30.7666 31.8 30.7627 31.8 30.7591C31.8 30.7553 31.8 30.7517 31.8 30.7478C31.8 30.7442 31.8 30.7406 31.8 30.737C31.8 30.7332 31.8 30.7296 31.8 30.726C31.8 30.7224 31.8 30.7188 31.8 30.7152C31.8 30.7116 31.8 30.7082 31.8 30.7046C31.8 30.701 31.8 30.6974 31.8 30.6941C31.8 30.6905 31.8 30.6871 31.8 30.6835C31.8 30.6802 31.8 30.6766 31.8 30.6732C31.8 30.6698 31.8 30.6662 31.8 30.6629C31.8 30.6595 31.8 30.6562 31.8 30.6528C31.8 30.6494 31.8 30.6461 31.8 30.6427C31.8 30.6394 31.8 30.636 31.8 30.6329C31.8 30.6295 31.8 30.6262 31.8 30.623C31.8 30.6197 31.8 30.6166 31.8 30.6132C31.8 30.6101 31.8 30.6067 31.8 30.6036C31.8 30.6005 31.8 30.5971 31.8 30.594C31.8 30.5909 31.8 30.5878 31.8 30.5846C31.8 30.5815 31.8 30.5784 31.8 30.5753C31.8 30.5722 31.8 30.569 31.8 30.5662C31.8 30.563 31.8 30.5599 31.8 30.557C31.8 30.5539 31.8 30.551 31.8 30.5479C31.8 30.545 31.8 30.5419 31.8 30.539C31.8 30.5359 31.8 30.533 31.8 30.5302C31.8 30.5273 31.8 30.5244 31.8 30.5215C31.8 30.5186 31.8 30.5158 31.8 30.5129C31.8 30.51 31.8 30.5071 31.8 30.5042C31.8 30.5014 31.8 30.4985 31.8 30.4958C31.8 30.493 31.8 30.4901 31.8 30.4874C31.8 30.4846 31.8 30.4819 31.8 30.4793C31.8 30.4764 31.8 30.4738 31.8 30.4709C31.8 30.4682 31.8 30.4656 31.8 30.463C31.8 30.4603 31.8 30.4577 31.8 30.455C31.8 30.4524 31.8 30.4498 31.8 30.4471C31.8 30.4445 31.8 30.4418 31.8 30.4392C31.8 30.4366 31.8 30.4342 31.8 30.4315C31.8 30.4289 31.8 30.4265 31.8 30.4238C31.8 30.4214 31.8 30.4188 31.8 30.4164C31.8 30.414 31.8 30.4114 31.8 30.409C31.8 30.4066 31.8 30.4042 31.8 30.4015C31.8 30.3991 31.8 30.3967 31.8 30.3943C31.8 30.3919 31.8 30.3895 31.8 30.3871C31.8 30.3847 31.8 30.3826 31.8 30.3802C31.8 30.3778 31.8 30.3754 31.8 30.3732C31.8 30.3708 31.8 30.3684 31.8 30.3662C31.8 30.3638 31.8 30.3617 31.8 30.3593C31.8 30.3571 31.8 30.355 31.8 30.3526C31.8 30.3504 31.8 30.3482 31.8 30.3461C31.8 30.3437 31.8 30.3415 31.8 30.3394C31.8 30.3372 31.8 30.335 31.8 30.3329C31.8 30.3307 31.8 30.3286 31.8 30.3266C31.8 30.3245 31.8 30.3223 31.8 30.3202C31.8 30.3182 31.8 30.3161 31.8 30.3139C31.8 30.312 31.8 30.3098 31.8 30.3079C31.8 30.3058 31.8 30.3038 31.8 30.3017C31.8 30.2998 31.8 30.2978 31.8 30.2957C31.8 30.2938 31.8 30.2918 31.8 30.2899C31.8 30.288 31.8 30.2858 31.8 30.2839C31.8 30.282 31.8 30.2801 31.8 30.2782C31.8 30.2762 31.8 30.2746 31.8 30.2726C31.8 30.2707 31.8 30.2688 31.8 30.2669C31.8 30.2652 31.8 30.2633 31.8 30.2614C31.8 30.2597 31.8 30.2578 31.8 30.2561C31.8 30.2542 31.8 30.2525 31.8 30.2506C31.8 30.2489 31.8 30.2472 31.8 30.2453C31.8 30.2436 31.8 30.2419 31.8 30.24C31.8 30.2383 31.8 30.2366 31.8 30.235C31.8 30.2333 31.8 30.2316 31.8 30.2299C31.8 30.2282 31.8 30.2266 31.8 30.2249C31.8 30.2232 31.8 30.2215 31.8 30.2201C31.8 30.2184 31.8 30.2167 31.8 30.215C31.8 30.2136 31.8 30.2119 31.8 30.2102C31.8 30.2088 31.8 30.2071 31.8 30.2057C31.8 30.204 31.8 30.2026 31.8 30.2009C31.8 30.1994 31.8 30.198 31.8 30.1963C31.8 30.1949 31.8 30.1934 31.8 30.192C31.8 30.1906 31.8 30.1889 31.8 30.1874C31.8 30.186 31.8 30.1846 31.8 30.1831C31.8 30.1817 31.8 30.1802 31.8 30.1788C31.8 30.1774 31.8 30.1759 31.8 30.1747C31.8 30.1733 31.8 30.1718 31.8 30.1704C31.8 30.1692 31.8 30.1678 31.8 30.1663C31.8 30.1651 31.8 30.1637 31.8 30.1622C31.8 30.161 31.8 30.1596 31.8 30.1584C31.8 30.1572 31.8 30.1558 31.8 30.1546C31.8 30.1531 31.8 30.1519 31.8 30.1507C31.8 30.1493 31.8 30.1481 31.8 30.1469C31.8 30.1457 31.8 30.1445 31.8 30.1433C31.8 30.1421 31.8 30.1406 31.8 30.1394C31.8 30.1382 31.8 30.137 31.8 30.1361C31.8 30.1349 31.8 30.1337 31.8 30.1325C31.8 30.1313 31.8 30.1301 31.8 30.1291C31.8 30.1279 31.8 30.1267 31.8 30.1255C31.8 30.1246 31.8 30.1234 31.8 30.1222C31.8 30.1212 31.8 30.12 31.8 30.119C31.8 30.1178 31.8 30.1169 31.8 30.1157C31.8 30.1147 31.8 30.1138 31.8 30.1126C31.8 30.1116 31.8 30.1106 31.8 30.1094C31.8 30.1085 31.8 30.1075 31.8 30.1066C31.8 30.1056 31.8 30.1044 31.8 30.1034C31.8 30.1025 31.8 30.1015 31.8 30.1006C31.8 30.0996 31.8 30.0986 31.8 30.0977C31.8 30.0967 31.8 30.0958 31.8 30.0948C31.8 30.0938 31.8 30.0931 31.8 30.0922C31.8 30.0912 31.8 30.0902 31.8 30.0895C31.8 30.0886 31.8 30.0876 31.8 30.0866C31.8 30.0859 31.8 30.085 31.8 30.0842C31.8 30.0833 31.8 30.0826 31.8 30.0816C31.8 30.0806 31.8 30.0799 31.8 30.0792C31.8 30.0782 31.8 30.0775 31.8 30.0766C31.8 30.0758 31.8 30.0751 31.8 30.0742C31.8 30.0734 31.8 30.0749 31.8 30.0742C31.8 30.0732 31.8 30.0703 31.8 30.0696C31.8 30.0689 31.8 30.0703 31.8 30.0696C31.8 30.0689 31.8 30.066 31.8 30.0653C31.8 30.0646 31.8 30.066 31.8 30.0653C31.8 30.0646 31.8 30.0617 31.8 30.061C31.8 30.0602 31.8 30.0617 31.8 30.061C31.8 30.0602 31.8 30.0576 31.8 30.0569C31.8 30.0562 31.8 30.0574 31.8 30.0569C31.8 30.0562 31.8 30.0535 31.8 30.053C31.8 30.0523 31.8 30.0538 31.8 30.053C31.8 30.0523 31.8 30.0499 31.8 30.0492C31.8 30.0487 31.8 30.0497 31.8 30.0492C31.8 30.0487 31.8 30.0463 31.8 30.0458C31.8 30.0451 31.8 30.0463 31.8 30.0458C31.8 30.0451 31.8 30.043 31.8 30.0425C31.8 30.042 31.8 30.043 31.8 30.0425C31.8 30.042 31.8 30.0398 31.8 30.0394C31.8 30.0386 31.8 30.0398 31.8 30.0394C31.8 30.0389 31.8 30.0367 31.8 30.0362C31.8 30.0358 31.8 30.0367 31.8 30.0362C31.8 30.0358 31.8 30.0338 31.8 30.0334C31.8 30.0329 31.8 30.0338 31.8 30.0334C31.8 30.0329 31.8 30.0312 31.8 30.0307C31.8 30.0302 31.8 30.0312 31.8 30.0307C31.8 30.0305 31.8 30.0286 31.8 30.0281C31.8 30.0276 31.8 30.025 31.8 30.0245C31.8 30.0242 31.8 30.0216 31.8 30.0214C31.8 30.0211 31.8 30.0187 31.8 30.0185C31.8 30.0182 31.8 30.0161 31.8 30.0156C31.8 30.0154 31.8 30.0137 31.8 30.0132C31.8 30.013 31.8 30.0108 31.8 30.0106C31.8 30.0103 31.8 30.0108 31.8 30.0106C31.8 30.0103 31.8 30.0084 31.8 30.0082C31.8 30.0079 31.8 30.0055 31.8 30.0053C31.8 30.0053 31.8 30.0031 31.8 30.0029C31.8 30.0026 31.8 30 31.8 30H30ZM31.8 30V18H28.2V30H31.8Z" fill="white"/>
</svg>
