<svg width="30" height="30" viewBox="0 0 30 30" fill="none" xmlns="http://www.w3.org/2000/svg">
<path d="M20.9766 5.59277V3.60645H19.6875V5.59277H10.3125V3.60645H9.02344V5.59277H2.69531V26.3936H27.3047V5.59277H20.9766ZM3.98438 6.88184H9.02344V8.90918H10.3125V6.88184H19.6875V8.90918H20.9766V6.88184H26.0156V11.3145H3.98438V6.88184ZM26.0156 25.1045H3.98438V11.7832H26.0156V25.1045Z" fill="#747474"/>
<path d="M8.37891 16.5732C8.37891 16.8297 8.48076 17.0756 8.66207 17.2569C8.84338 17.4382 9.08929 17.54 9.3457 17.54C9.60211 17.54 9.84802 17.4382 10.0293 17.2569C10.2106 17.0756 10.3125 16.8297 10.3125 16.5732C10.3125 16.3168 10.2106 16.0709 10.0293 15.8896C9.84802 15.7083 9.60211 15.6064 9.3457 15.6064C9.08929 15.6064 8.84338 15.7083 8.66207 15.8896C8.48076 16.0709 8.37891 16.3168 8.37891 16.5732Z" fill="#747474"/>
<path d="M13.9746 16.5732C13.9746 16.7002 13.9996 16.8259 14.0482 16.9432C14.0968 17.0605 14.168 17.1671 14.2578 17.2569C14.3476 17.3466 14.4541 17.4179 14.5714 17.4664C14.6887 17.515 14.8144 17.54 14.9414 17.54C15.0684 17.54 15.1941 17.515 15.3114 17.4664C15.4287 17.4179 15.5353 17.3466 15.625 17.2569C15.7148 17.1671 15.786 17.0605 15.8346 16.9432C15.8832 16.8259 15.9082 16.7002 15.9082 16.5732C15.9082 16.4463 15.8832 16.3206 15.8346 16.2033C15.786 16.086 15.7148 15.9794 15.625 15.8896C15.5353 15.7998 15.4287 15.7286 15.3114 15.68C15.1941 15.6315 15.0684 15.6064 14.9414 15.6064C14.8144 15.6064 14.6887 15.6315 14.5714 15.68C14.4541 15.7286 14.3476 15.7998 14.2578 15.8896C14.168 15.9794 14.0968 16.086 14.0482 16.2033C13.9996 16.3206 13.9746 16.4463 13.9746 16.5732Z" fill="#747474"/>
<path d="M19.5732 16.5732C19.5732 16.8297 19.6751 17.0756 19.8564 17.2569C20.0377 17.4382 20.2836 17.54 20.54 17.54C20.7964 17.54 21.0424 17.4382 21.2237 17.2569C21.405 17.0756 21.5068 16.8297 21.5068 16.5732C21.5068 16.3168 21.405 16.0709 21.2237 15.8896C21.0424 15.7083 20.7964 15.6064 20.54 15.6064C20.2836 15.6064 20.0377 15.7083 19.8564 15.8896C19.6751 16.0709 19.5732 16.3168 19.5732 16.5732Z" fill="#747474"/>
<path d="M8.37891 20.3145C8.37891 20.5709 8.48076 20.8168 8.66207 20.9981C8.84338 21.1794 9.08929 21.2812 9.3457 21.2812C9.60211 21.2812 9.84802 21.1794 10.0293 20.9981C10.2106 20.8168 10.3125 20.5709 10.3125 20.3145C10.3125 20.058 10.2106 19.8121 10.0293 19.6308C9.84802 19.4495 9.60211 19.3477 9.3457 19.3477C9.08929 19.3477 8.84338 19.4495 8.66207 19.6308C8.48076 19.8121 8.37891 20.058 8.37891 20.3145Z" fill="#747474"/>
<path d="M13.9746 20.3145C13.9746 20.4414 13.9996 20.5671 14.0482 20.6844C14.0968 20.8017 14.168 20.9083 14.2578 20.9981C14.3476 21.0879 14.4541 21.1591 14.5714 21.2077C14.6887 21.2562 14.8144 21.2812 14.9414 21.2812C15.0684 21.2812 15.1941 21.2562 15.3114 21.2077C15.4287 21.1591 15.5353 21.0879 15.625 20.9981C15.7148 20.9083 15.786 20.8017 15.8346 20.6844C15.8832 20.5671 15.9082 20.4414 15.9082 20.3145C15.9082 20.1875 15.8832 20.0618 15.8346 19.9445C15.786 19.8272 15.7148 19.7206 15.625 19.6308C15.5353 19.541 15.4287 19.4698 15.3114 19.4212C15.1941 19.3727 15.0684 19.3477 14.9414 19.3477C14.8144 19.3477 14.6887 19.3727 14.5714 19.4212C14.4541 19.4698 14.3476 19.541 14.2578 19.6308C14.168 19.7206 14.0968 19.8272 14.0482 19.9445C13.9996 20.0618 13.9746 20.1875 13.9746 20.3145Z" fill="#747474"/>
<path d="M19.5732 20.3145C19.5732 20.5709 19.6751 20.8168 19.8564 20.9981C20.0377 21.1794 20.2836 21.2812 20.54 21.2812C20.7964 21.2812 21.0424 21.1794 21.2237 20.9981C21.405 20.8168 21.5068 20.5709 21.5068 20.3145C21.5068 20.058 21.405 19.8121 21.2237 19.6308C21.0424 19.4495 20.7964 19.3477 20.54 19.3477C20.2836 19.3477 20.0377 19.4495 19.8564 19.6308C19.6751 19.8121 19.5732 20.058 19.5732 20.3145Z" fill="#747474"/>
</svg>
