<svg width="40" height="40" viewBox="0 0 40 40" fill="none" xmlns="http://www.w3.org/2000/svg">
<path d="M13.75 7.5V3.7475C13.75 3.41598 13.8817 3.09803 14.1161 2.86361C14.3505 2.62919 14.6685 2.4975 15 2.4975H25C25.3315 2.4975 25.6495 2.62919 25.8839 2.86361C26.1183 3.09803 26.25 3.41598 26.25 3.7475V7.5H36.25C36.5815 7.5 36.8995 7.63169 37.1339 7.86611C37.3683 8.10053 37.5 8.41848 37.5 8.75C37.5 9.08152 37.3683 9.39946 37.1339 9.63388C36.8995 9.8683 36.5815 10 36.25 10H3.75C3.41848 10 3.10054 9.8683 2.86612 9.63388C2.6317 9.39946 2.5 9.08152 2.5 8.75C2.5 8.41848 2.6317 8.10053 2.86612 7.86611C3.10054 7.63169 3.41848 7.5 3.75 7.5H13.75ZM16.25 7.5H23.75V5H16.25V7.5ZM7.5 37.5C7.16848 37.5 6.85054 37.3683 6.61612 37.1339C6.3817 36.8995 6.25 36.5815 6.25 36.25V10H33.75V36.25C33.75 36.5815 33.6183 36.8995 33.3839 37.1339C33.1495 37.3683 32.8315 37.5 32.5 37.5H7.5ZM16.25 30C16.5815 30 16.8995 29.8683 17.1339 29.6339C17.3683 29.3995 17.5 29.0815 17.5 28.75V16.25C17.5 15.9185 17.3683 15.6005 17.1339 15.3661C16.8995 15.1317 16.5815 15 16.25 15C15.9185 15 15.6005 15.1317 15.3661 15.3661C15.1317 15.6005 15 15.9185 15 16.25V28.75C15 29.0815 15.1317 29.3995 15.3661 29.6339C15.6005 29.8683 15.9185 30 16.25 30ZM23.75 30C24.0815 30 24.3995 29.8683 24.6339 29.6339C24.8683 29.3995 25 29.0815 25 28.75V16.25C25 15.9185 24.8683 15.6005 24.6339 15.3661C24.3995 15.1317 24.0815 15 23.75 15C23.4185 15 23.1005 15.1317 22.8661 15.3661C22.6317 15.6005 22.5 15.9185 22.5 16.25V28.75C22.5 29.0815 22.6317 29.3995 22.8661 29.6339C23.1005 29.8683 23.4185 30 23.75 30Z" fill="white"/>
</svg>
