<svg width="28" height="28" viewBox="0 0 28 28" fill="none" xmlns="http://www.w3.org/2000/svg">
<path d="M27.9314 6.03537C27.815 5.44726 27.5527 4.89141 27.1698 4.42411C27.0921 4.326 27.0108 4.23872 26.9218 4.15018C26.2408 3.46549 25.2934 3.07278 24.3225 3.07278H3.67741C2.69571 3.07278 1.77242 3.45559 1.07762 4.15056C0.98968 4.23828 0.908141 4.32644 0.827422 4.42766C0.44625 4.893 0.185008 5.44808 0.0714219 6.03701C0.0239531 6.26828 0 6.50792 0 6.75035V21.25C0 21.7545 0.102484 22.2457 0.305648 22.7126C0.481469 23.1273 0.748234 23.5205 1.0774 23.8495C1.1603 23.932 1.24266 24.0081 1.3306 24.0824C1.98871 24.6274 2.82204 24.9273 3.67741 24.9273H24.3225C25.1834 24.9273 26.0159 24.6262 26.6722 24.0763C26.76 24.0054 26.8413 23.9308 26.9226 23.8495C27.2408 23.5316 27.4936 23.1664 27.6754 22.7637L27.6994 22.7063C27.8988 22.2482 28 21.7586 28 21.2501V6.75035C28 6.51109 27.9769 6.26987 27.9314 6.03537ZM1.90438 5.41975C1.95639 5.34363 2.02278 5.26548 2.10749 5.18011C2.52798 4.75984 3.08563 4.52856 3.67735 4.52856H24.3224C24.9193 4.52856 25.4772 4.76022 25.893 5.18093C25.9648 5.2535 26.0334 5.33406 26.0932 5.41456L26.2511 5.62674L15.2316 15.2307C14.8918 15.5286 14.4545 15.6925 13.9998 15.6925C13.5497 15.6925 13.1127 15.529 12.7689 15.2311L1.76039 5.62948L1.90438 5.41975ZM1.46316 21.3781C1.4572 21.3386 1.45584 21.2947 1.45584 21.25V7.05059L10.0073 14.5106L1.54213 21.8912L1.46316 21.3781ZM25.4242 23.1788C25.0932 23.3697 24.712 23.471 24.3225 23.471H3.67741C3.28765 23.471 2.90664 23.3697 2.57589 23.1788L2.22983 22.9782L10.9763 15.3559L11.9349 16.1896C12.5099 16.6888 13.2431 16.964 13.9999 16.964C14.7596 16.964 15.494 16.6888 16.0686 16.1896L17.0268 15.3555L25.7703 22.9786L25.4242 23.1788ZM26.5438 21.25C26.5438 21.2939 26.543 21.3374 26.5374 21.376L26.4616 21.894L17.9928 14.5146L26.5438 7.0542V21.25Z" fill="white"/>
</svg>
