<svg width="40" height="40" viewBox="0 0 40 40" fill="none" xmlns="http://www.w3.org/2000/svg">
<path fill-rule="evenodd" clip-rule="evenodd" d="M20.0002 2.08334C15.628 2.08334 12.0836 5.62775 12.0836 10C12.0836 14.3723 15.628 17.9167 20.0002 17.9167C24.3725 17.9167 27.9168 14.3723 27.9168 10C27.9168 5.62775 24.3725 2.08334 20.0002 2.08334ZM14.5836 10C14.5836 7.00845 17.0087 4.58334 20.0002 4.58334C22.9918 4.58334 25.4168 7.00845 25.4168 10C25.4168 12.9916 22.9918 15.4167 20.0002 15.4167C17.0087 15.4167 14.5836 12.9916 14.5836 10Z" fill="white"/>
<path fill-rule="evenodd" clip-rule="evenodd" d="M20.0002 20.4167C16.1443 20.4167 12.5918 21.2932 9.95932 22.7738C7.36605 24.2327 5.4169 26.4435 5.4169 29.1667L5.4168 29.3367C5.41492 31.273 5.41255 33.7033 7.54427 35.4392C8.59338 36.2935 10.061 36.901 12.0439 37.3025C14.0323 37.7048 16.624 37.9167 20.0002 37.9167C23.3765 37.9167 25.9682 37.7048 27.9565 37.3025C29.9395 36.901 31.4072 36.2935 32.4562 35.4392C34.5878 33.7033 34.5855 31.273 34.5837 29.3367L34.5835 29.1667C34.5835 26.4435 32.6345 24.2327 30.0412 22.7738C27.4087 21.2932 23.8562 20.4167 20.0002 20.4167ZM7.9169 29.1667C7.9169 27.7478 8.95253 26.2085 11.185 24.9528C13.3782 23.7192 16.4924 22.9167 20.0002 22.9167C23.5082 22.9167 26.6222 23.7192 28.8155 24.9528C31.048 26.2085 32.0835 27.7478 32.0835 29.1667C32.0835 31.3463 32.0164 32.5733 30.8775 33.5007C30.26 34.0037 29.2277 34.4945 27.4605 34.8522C25.699 35.2087 23.2907 35.4167 20.0002 35.4167C16.7099 35.4167 14.3015 35.2087 12.5399 34.8522C10.7728 34.4945 9.74043 34.0037 9.12288 33.5007C7.9841 32.5733 7.9169 31.3463 7.9169 29.1667Z" fill="white"/>
</svg>
