<svg width="45" height="45" viewBox="0 0 45 45" fill="none" xmlns="http://www.w3.org/2000/svg">
<path d="M22.5 21.8011C24.3803 21.8011 26.1835 21.0542 27.5131 19.7246C28.8427 18.395 29.5896 16.5918 29.5896 14.7115C29.5896 12.8312 28.8427 11.0279 27.5131 9.69837C26.1835 8.36881 24.3803 7.62187 22.5 7.62187C20.6197 7.62187 18.8164 8.36881 17.4869 9.69837C16.1573 11.0279 15.4104 12.8312 15.4104 14.7115C15.4104 16.5918 16.1573 18.395 17.4869 19.7246C18.8164 21.0542 20.6197 21.8011 22.5 21.8011ZM22.5 24.9159C13.0739 24.9159 7.03125 30.1177 7.03125 32.6503V37.3795H37.9688V32.6503C37.9688 29.5875 32.2481 24.9159 22.5 24.9159Z" fill="white"/>
</svg>
