<svg width="40" height="40" viewBox="0 0 40 40" fill="none" xmlns="http://www.w3.org/2000/svg">
<path fill-rule="evenodd" clip-rule="evenodd" d="M9.55448 3.405C11.5834 1.38764 14.924 1.74673 16.6228 4.01603L18.7245 6.82337C20.1068 8.66985 19.9848 11.2505 18.344 12.882L17.946 13.2778C17.9287 13.3282 17.8865 13.4869 17.9333 13.7885C18.0387 14.4677 18.6058 15.9083 20.9867 18.2757C23.3667 20.6422 24.8175 21.2088 25.5063 21.3145C25.8185 21.3623 25.9818 21.3177 26.0324 21.3L26.7123 20.6238C28.171 19.1735 30.4125 18.9023 32.2185 19.8842L35.4027 21.6152C38.1292 23.0973 38.8182 26.8035 36.5842 29.0247L34.2167 31.3788C33.4707 32.1205 32.4675 32.739 31.2432 32.8532C28.2282 33.1343 21.1978 32.7757 13.811 25.4307C6.91448 18.5733 5.59105 12.5933 5.4236 9.64695C5.33893 8.1571 6.04295 6.8966 6.93848 6.00615L9.55448 3.405ZM14.6215 5.51427C13.7771 4.38637 12.2033 4.29668 11.3172 5.1778L8.70122 7.77895C8.15135 8.3257 7.88678 8.92825 7.91957 9.50512C8.05262 11.8461 9.12145 17.2422 15.5737 23.6578C22.3428 30.3885 28.5949 30.5893 31.0112 30.364C31.5049 30.318 31.9959 30.0615 32.454 29.606L34.8215 27.2518C35.784 26.295 35.5717 24.5525 34.2087 23.8115L31.0245 22.0807C30.1452 21.6027 29.115 21.7603 28.475 22.3967L27.716 23.1515L26.8347 22.265C27.716 23.1515 27.7149 23.1527 27.7137 23.1538L27.7112 23.1562L27.706 23.1612L27.6952 23.1717L27.6709 23.1943C27.6534 23.2103 27.6332 23.2278 27.6107 23.2467C27.5654 23.2842 27.5097 23.3265 27.4432 23.3712C27.3097 23.4605 27.1335 23.5578 26.912 23.6402C26.4607 23.8083 25.8653 23.8987 25.1273 23.7855C23.6827 23.564 21.769 22.579 19.224 20.0485C16.6798 17.5188 15.6866 15.6139 15.4629 14.1718C15.3484 13.4344 15.4397 12.8389 15.6099 12.3871C15.6933 12.1657 15.7916 11.9896 15.8819 11.8565C15.9269 11.7901 15.9697 11.7346 16.0074 11.6895C16.0263 11.6669 16.044 11.647 16.0601 11.6295L16.083 11.6052L16.0934 11.5944L16.0984 11.5894L16.1009 11.5869C16.102 11.5858 16.1032 11.5846 16.9847 12.471L16.1032 11.5846L16.5813 11.1093C17.2957 10.399 17.3957 9.2199 16.7232 8.32162L14.6215 5.51427Z" fill="white"/>
</svg>
