<svg width="20" height="20" viewBox="0 0 20 20" fill="none" xmlns="http://www.w3.org/2000/svg">
<g clip-path="url(#clip0_13_284)">
<path d="M19.1667 3.33334C19.1667 1.95264 18.0474 0.833344 16.6667 0.833344H13.3333C12.8731 0.833344 12.5 1.20644 12.5 1.66668C12.5 2.12691 12.8731 2.50001 13.3333 2.50001H16.6667C17.1269 2.50001 17.5 2.87311 17.5 3.33334V6.66668C17.5 7.12691 17.8731 7.50001 18.3333 7.50001C18.7936 7.50001 19.1667 7.12691 19.1667 6.66668V3.33334Z" fill="white"/>
<path d="M19.1667 13.3333C19.1667 12.8731 18.7936 12.5 18.3333 12.5C17.8731 12.5 17.5 12.8731 17.5 13.3333V16.6667C17.5 17.1269 17.1269 17.5 16.6667 17.5H13.3333C12.8731 17.5 12.5 17.8731 12.5 18.3333C12.5 18.7936 12.8731 19.1667 13.3333 19.1667H16.6667C18.0474 19.1667 19.1667 18.0474 19.1667 16.6667V13.3333Z" fill="white"/>
<path d="M3.33331 17.5C2.87308 17.5 2.49998 17.1269 2.49998 16.6667V13.3333C2.49998 12.8731 2.12688 12.5 1.66665 12.5C1.20641 12.5 0.833313 12.8731 0.833313 13.3333V16.6667C0.833313 18.0474 1.9526 19.1667 3.33331 19.1667H6.66665C7.12688 19.1667 7.49998 18.7936 7.49998 18.3333C7.49998 17.8731 7.12688 17.5 6.66665 17.5H3.33331Z" fill="white"/>
<path d="M0.833313 6.66668C0.833313 7.12691 1.20641 7.50001 1.66665 7.50001C2.12688 7.50001 2.49998 7.12691 2.49998 6.66668V3.33334C2.49998 2.87311 2.87308 2.50001 3.33331 2.50001H6.66665C7.12688 2.50001 7.49998 2.12691 7.49998 1.66668C7.49998 1.20644 7.12688 0.833344 6.66665 0.833344H3.33331C1.9526 0.833344 0.833313 1.95264 0.833313 3.33334V6.66668Z" fill="white"/>
<path fill-rule="evenodd" clip-rule="evenodd" d="M9.16669 4.99999C9.16669 4.53976 8.7936 4.16666 8.33335 4.16666H5.00002C4.53979 4.16666 4.16669 4.53976 4.16669 4.99999V8.33332C4.16669 8.79357 4.53979 9.16666 5.00002 9.16666H8.33335C8.7936 9.16666 9.16669 8.79357 9.16669 8.33332V4.99999ZM7.50002 6.24999C7.50002 6.01987 7.31347 5.83332 7.08335 5.83332H6.25002C6.0199 5.83332 5.83335 6.01987 5.83335 6.24999V7.08332C5.83335 7.31344 6.0199 7.49999 6.25002 7.49999H7.08335C7.31347 7.49999 7.50002 7.31344 7.50002 7.08332V6.24999Z" fill="white"/>
<path fill-rule="evenodd" clip-rule="evenodd" d="M15 10.8333C15.4602 10.8333 15.8333 11.2064 15.8333 11.6667V15C15.8333 15.4603 15.4602 15.8333 15 15.8333H11.6666C11.2064 15.8333 10.8333 15.4603 10.8333 15V11.6667C10.8333 11.2064 11.2064 10.8333 11.6666 10.8333H15ZM12.5 12.9167C12.5 12.6866 12.6866 12.5 12.9166 12.5H13.75C13.9801 12.5 14.1666 12.6866 14.1666 12.9167V13.75C14.1666 13.9801 13.9801 14.1667 13.75 14.1667H12.9166C12.6866 14.1667 12.5 13.9801 12.5 13.75V12.9167Z" fill="white"/>
<path d="M11.6666 4.16666C11.2064 4.16666 10.8333 4.53976 10.8333 4.99999C10.8333 5.46023 11.2064 5.83332 11.6666 5.83332H13.75C13.9801 5.83332 14.1666 6.01987 14.1666 6.24999V8.33332C14.1666 8.79357 14.5397 9.16666 15 9.16666C15.4602 9.16666 15.8333 8.79357 15.8333 8.33332V4.99999C15.8333 4.53976 15.4602 4.16666 15 4.16666H11.6666Z" fill="white"/>
<path d="M11.6666 6.66666C11.2064 6.66666 10.8333 7.03975 10.8333 7.49999V8.33332C10.8333 8.79357 11.2064 9.16666 11.6666 9.16666C12.1269 9.16666 12.5 8.79357 12.5 8.33332V7.49999C12.5 7.03976 12.1269 6.66666 11.6666 6.66666Z" fill="white"/>
<path d="M5.00002 10.8333C4.53979 10.8333 4.16669 11.2064 4.16669 11.6667V13.3333C4.16669 13.7936 4.53979 14.1667 5.00002 14.1667C5.46026 14.1667 5.83335 13.7936 5.83335 13.3333V12.9167C5.83335 12.6866 6.0199 12.5 6.25002 12.5H8.33335C8.7936 12.5 9.16669 12.1269 9.16669 11.6667C9.16669 11.2064 8.7936 10.8333 8.33335 10.8333H5.00002Z" fill="white"/>
<path d="M8.33333 14.1667C7.87309 14.1667 7.5 14.5397 7.5 15C7.5 15.4602 7.87309 15.8333 8.33333 15.8333C8.79358 15.8333 9.16667 15.4602 9.16667 15C9.16667 14.5397 8.79358 14.1667 8.33333 14.1667Z" fill="white"/>
</g>
<defs>
<clipPath id="clip0_13_284">
<rect width="20" height="20" fill="white"/>
</clipPath>
</defs>
</svg>
