<svg width="45" height="45" viewBox="0 0 45 45" fill="none" xmlns="http://www.w3.org/2000/svg">
<path d="M37.9688 34.5516L30.0277 26.6091C31.4248 24.5389 32.1702 22.0978 32.168 19.6003C32.168 12.6703 26.5317 7.03125 19.6003 7.03125C12.6703 7.03125 7.03125 12.6703 7.03125 19.6003C7.03125 26.5317 12.6703 32.1694 19.6003 32.1694C22.0979 32.1723 24.5392 31.4268 26.6091 30.0291L34.5488 37.9688L37.9688 34.5516ZM19.6003 28.3008C17.2931 28.2985 15.0811 27.381 13.4496 25.7496C11.8182 24.1182 10.9007 21.9061 10.8984 19.5989C10.901 17.2918 11.8187 15.08 13.45 13.4486C15.0814 11.8173 17.2932 10.8996 19.6003 10.897C21.9074 10.8996 24.1192 11.8173 25.7506 13.4486C27.3819 15.08 28.2996 17.2918 28.3022 19.5989C28.2996 21.906 27.3819 24.1178 25.7506 25.7492C24.1192 27.3805 21.9074 28.2982 19.6003 28.3008Z" fill="white"/>
</svg>
