<svg width="30" height="30" viewBox="0 0 30 30" fill="none" xmlns="http://www.w3.org/2000/svg">
<path d="M12.4872 28.1875C12.4247 28.1875 12.3622 28.1875 12.2997 28.1625C7.51225 27.1875 3.62475 23.6625 2.17475 18.9875C2.02475 18.4875 2.29975 17.9625 2.78725 17.8125C3.28725 17.6625 3.81225 17.9375 3.96225 18.425C5.21225 22.45 8.54975 25.475 12.6747 26.3125C13.1872 26.4125 13.5122 26.9125 13.3997 27.425C13.3122 27.875 12.9122 28.1875 12.4872 28.1875Z" fill="#747474"/>
<path d="M27.4377 14.6625C26.9627 14.6625 26.5502 14.3 26.5002 13.825C25.9002 7.9 20.9503 3.4375 15.0002 3.4375C9.03777 3.4375 4.10027 7.9 3.50027 13.8125C3.45027 14.325 3.00027 14.7125 2.47527 14.65C1.96277 14.6 1.58777 14.1375 1.63777 13.625C2.33777 6.75 8.08777 1.5625 15.0002 1.5625C21.9252 1.5625 27.6753 6.75 28.3628 13.625C28.4128 14.1375 28.0378 14.6 27.5253 14.65C27.5003 14.6625 27.4627 14.6625 27.4377 14.6625Z" fill="#747474"/>
<path d="M17.5126 28.1875C17.0751 28.1875 16.6876 27.8875 16.6001 27.4375C16.5001 26.925 16.8251 26.4375 17.3251 26.3375C21.4251 25.5 24.7626 22.5 26.0251 18.5C26.1751 18 26.7126 17.725 27.2001 17.8875C27.7001 18.0375 27.9626 18.575 27.8126 19.0625C26.3376 23.7125 22.4626 27.2 17.7001 28.175C17.6376 28.175 17.5751 28.1875 17.5126 28.1875Z" fill="#747474"/>
</svg>
