<svg width="30" height="30" viewBox="0 0 30 30" fill="none" xmlns="http://www.w3.org/2000/svg">
<path d="M10.1786 5.96374C10.065 5.72229 9.88504 5.51815 9.65974 5.37516C9.43444 5.23218 9.17311 5.15625 8.90626 5.15625C8.63942 5.15625 8.37808 5.23218 8.15278 5.37516C7.92748 5.51815 7.74752 5.72229 7.63391 5.96374L0.133908 21.9012C-0.024511 22.2386 -0.0424946 22.6251 0.0839098 22.9758C0.210314 23.3264 0.470764 23.6125 0.808023 23.7713C1.14528 23.93 1.53176 23.9483 1.88251 23.8222C2.23327 23.6961 2.51961 23.4359 2.67862 23.0988L4.50452 19.2187H13.308L15.1339 23.0988C15.2929 23.4359 15.5792 23.6961 15.93 23.8222C16.2808 23.9483 16.6672 23.93 17.0045 23.7713C17.3418 23.6125 17.6022 23.3264 17.7286 22.9758C17.855 22.6251 17.837 22.2386 17.6786 21.9012L10.1786 5.96374ZM5.82809 16.4062L8.90626 9.86515L11.9844 16.4062H5.82809ZM23.9063 10.6524C22.7801 10.644 21.6789 10.9847 20.7542 11.6275C20.4493 11.8419 20.2419 12.1686 20.1777 12.5358C20.1135 12.903 20.1978 13.2807 20.4119 13.5858C20.6261 13.8909 20.9526 14.0985 21.3197 14.163C21.6869 14.2275 22.0646 14.1435 22.3699 13.9296C22.8228 13.622 23.3588 13.4599 23.9063 13.4649C25.1986 13.4649 26.25 14.306 26.25 15.3399V15.5015C25.5135 15.169 24.7143 14.998 23.9063 15C21.0631 15 18.75 17.0502 18.75 19.5703C18.75 22.0904 21.0631 24.1406 23.9063 24.1406C24.8556 24.1444 25.7905 23.9075 26.6235 23.4521C26.8151 23.6605 27.065 23.8061 27.3407 23.87C27.6164 23.9339 27.905 23.913 28.1686 23.8101C28.4322 23.7072 28.6586 23.527 28.8181 23.2933C28.9776 23.0595 29.0628 22.783 29.0625 22.5V15.3399C29.0625 12.7552 26.7494 10.6524 23.9063 10.6524ZM23.9063 21.3281C22.6359 21.3281 21.5625 20.5231 21.5625 19.5703C21.5625 18.6175 22.6359 17.8125 23.9063 17.8125C25.1767 17.8125 26.25 18.6175 26.25 19.5703C26.25 20.5231 25.1767 21.3281 23.9063 21.3281Z" fill="#747474"/>
</svg>
